<svg width="64" height="64" viewBox="0 0 64 64" fill="none" xmlns="http://www.w3.org/2000/svg">
  <defs>
    <linearGradient id="sjShield" x1="9" y1="4" x2="55" y2="60" gradientUnits="userSpaceOnUse">
      <stop stop-color="#34D399"/>
      <stop offset="1" stop-color="#0D9488"/>
    </linearGradient>
  </defs>
  <path d="M32 4L55 12V33C55 46 45.5 55.5 32 60C18.5 55.5 9 46 9 33V12L32 4Z" fill="url(#sjShield)"/>
  <path d="M40 24.5C40 20 36 17.5 31.5 17.5C27 17.5 23 20 23 24.5C23 28.5 26.5 30.5 31.5 31.8C36.5 33 40 35 40 39.5C40 44 36 46.5 31.5 46.5C27 46.5 23 44 23 39.5" stroke="white" stroke-width="5" stroke-linecap="round" fill="none"/>
</svg>
